#!OML:ASF F:\VICON\USERDATA\INSTALL\rory3\rory3.ASF
:FULLY-SPECIFIED
:DEGREES
78
root -0.1919465521722857 16.99517549719987 43.48272734928962 1.7925835025324144 -3.2722672551434258 -3.8904417499445816
lfemur -30.516459539984734 -3.4575153034222903 -15.341450464561786
ltibia 30.75810039946387
lfoot 0.3579525842410105 -3.3644071810508636
ltoes -2.702980874780687
rfemur 7.048574202821291 3.0070631285921015 31.474691806680312
rtibia 43.95258826729118
rfoot -4.07979268904884 -0.9969749811282984
rtoes -10.68244041236914
lowerback 10.12658847999286 2.2697137377644108 4.772400966301503
upperback -0.8816270816865146 3.6424586229281477 0.9493901753719711
thorax -6.664774797009177 1.6236672960332432 -2.322395038098775
lowerneck -17.303787883039988 -3.6297224360735085 -2.4629916243992582
upperneck 17.941059868338026 -4.6950044793304855 2.834041171021889
head 8.441554759994299 -2.1481606991693285 0.9443851719198557
lclavicle -1.675152833611478e-15 -3.591862192375229e-15
lhumerus -50.034452218410195 1.778354740469906 87.0082221000672
lradius 54.88438719626209
lwrist 5.830789003295058
lhand -27.82353808337952 12.583398943989298
lfingers 7.125019999999999
lthumb -1.5081381150719322 42.52834464595787
rclavicle -1.6750306890281595e-15 -3.591758124329576e-15
rhumerus -33.662501449351694 -4.1150414185744 -89.02725804402607
rradius 69.27468141305829
rwrist -5.984702620160473
rhand -19.497201911605586 31.247276206897507
rfingers 7.125019999999999
rthumb 6.381742871169507 1.3935651954975403
79
root -0.11287963105591191 17.167448633689876 44.55483509546775 0.8104823462294974 -2.2531479411570015 -2.6060819017887793
lfemur -27.643822999876626 -3.0273517272660384 -18.138313420567613
ltibia 34.424312847029256
lfoot 0.7178838642337186 -5.755032606204443
ltoes -2.5401251854599853
rfemur 2.2562628567678527 -0.3306883448906892 28.335673169979582
rtibia 56.72865040620059
rfoot 8.70716824948493 0.947485500401938
rtoes -2.9317045960461465
lowerback 10.179978859433303 2.108002401852869 3.6717199288232605
upperback -0.9768773123522301 3.3465586541681045 0.4217643943898295
thorax -6.814958844128257 1.505579126968091 -2.04278475200877
lowerneck -17.01215818497599 -3.606347039361175 -2.4303362955317143
upperneck 18.089979758852515 -4.700888489736871 2.7777971795778242
head 8.417413969288928 -2.159450628911725 0.9406713177087773
lclavicle -1.6762597649029015e-15 -3.592646026355497e-15
lhumerus -50.39606096655177 2.422219988329476 86.37475946398762
lradius 54.12804685485032
lwrist 3.4121179990121977
lhand -26.36970667282631 13.431034946750499
lfingers 7.125019999999999
lthumb -0.39735905177788755 43.14352851930045
rclavicle -1.6775718158538994e-15 -3.5935550142413975e-15
rhumerus -35.712708856353544 -5.872205628941229 -88.27885176953299
rradius 67.34245850215528
rwrist -4.391586767633275
rhand -19.339865310235755 31.086145222235192
rfingers 7.125019999999999
rthumb 6.627436571760328 1.034463199059693
80
root -0.0337441765416705 17.381508250474614 45.74367989354871 -0.022801419151596725 -2.8877012276328493 -1.5631772945791205
lfemur -23.970912090469028 -2.424353360695433 -20.23455518283992
ltibia 36.658390497086785
lfoot -1.3057258353714616 -5.743875770074784
ltoes -2.0963633111687097
rfemur -5.18775386853094 -1.632950694738002 25.63078632568816
rtibia 70.70157555779463
rfoot 23.13691105837267 -0.07527744948931847
rtoes 17.589112975020974
lowerback 10.98957544709371 2.237155343882496 2.6403848125372376
upperback -0.8533256843217605 3.339812312126817 0.05929237212901706
thorax -7.137034877848285 1.5225486875446452 -1.674480901306566
lowerneck -16.871443742596092 -3.48581226109263 -2.3999526582154065
upperneck 18.114553966026207 -4.524287802129429 2.7529027234369634
head 8.415726245853469 -2.0663989339162567 0.9544062389731516
lclavicle -1.6756618797141659e-15 -3.592223001294375e-15
lhumerus -49.895852505369085 1.8308023200463817 86.6338780376527
lradius 55.05560939708604
lwrist 6.673881345375396
lhand -26.04475547632685 13.302807033826141
lfingers 7.125019999999999
lthumb -0.11302448683355504 42.955766214169465
rclavicle -1.6794980478652088e-15 -3.594917130016817e-15
rhumerus -37.214020347257716 -7.189350910069062 -87.77259299833091
rradius 65.08296178430228
rwrist -2.608839344769545
rhand -18.824324959006987 30.746289151746602
rfingers 7.125019999999999
rthumb 7.273698700085507 0.7403090291488412
81
root 0.014090913666757299 17.468824899448713 47.21409901551649 -0.5766965881235273 -3.5140777889759276 -0.7107571208675971
lfemur -20.032103631123924 -2.4453828459849754 -21.860566554827248
ltibia 36.671499399633916
lfoot -4.253015099271611 -4.586681260447337
ltoes -0.4879048231717169
rfemur -13.058080813985557 -2.998532503038231 23.890615823614844
rtibia 82.96802381336434
rfoot 24.2060779783945 -5.332789618692585
rtoes 24.553545997686186
lowerback 11.767314048598237 2.2011998800450567 1.5131327600396154
upperback -0.5067629995137407 3.1907210273887623 -0.14896666442349416
thorax -7.327996731774121 1.4918165563307106 -1.1710463427286795
lowerneck -16.74923724647521 -3.2999137870272253 -2.3778034452552674
upperneck 18.12912157339941 -4.27943541368192 2.726241759164908
head 8.4302006630039 -1.945329957045885 0.9652318428124402
lclavicle -1.6753929091162084e-15 -3.592033141769172e-15
lhumerus -48.41626704976054 0.684013256901852 87.27575713584741
lradius 56.124917984500016
lwrist 13.261504877296462
lhand -27.13223491239371 12.762505897722557
lfingers 7.125019999999999
lthumb -1.0995163219479602 42.36236065017762
rclavicle -1.679160301399467e-15 -3.594678249354374e-15
rhumerus -37.92721378006664 -7.877643918329069 -87.69533322440857
rradius 62.31797769117551
rwrist -0.6674789390481961
rhand -18.364445712468893 30.3917806955147
rfingers 7.125019999999999
rthumb 7.759848271400168 0.3632425115071378
